# xmcd CD database file generated by OrangeCD 4.3
#
# Track frame offsets:
#	150
#	21295
#	49573
#	67893
#	86418
#	106273
#	129970
#	162615
#	193945
#
# Disc length: 2849 seconds
#
# Revision: 2
# Processed by: cddbd v1.4PL0 Copyright (c) Steve Scherf et al.
# Submitted via: OrangeCD 4.3
#
DISCID=700b1f09
DTITLE=Rory Gallagher - Tatoo
DYEAR=1900
DGENRE=Blues
TTITLE0=Tatoo'd Lady
TTITLE1=Cradle Rock
TTITLE2=20 - 20 Vision
TTITLE3=They Don't Make Like You Anymore
TTITLE4=Livin' Like A Trucker
TTITLE5=Sleep On A Clothes-Line
TTITLE6=Who's That Coming
TTITLE7=A Million Miles Away
TTITLE8=Admit It
EXTD=
EXTT0=
EXTT1=
EXTT2=
EXTT3=
EXTT4=
EXTT5=
EXTT6=
EXTT7=
EXTT8=
PLAYORDER=
